<svg id="SVGFlowerOfLife" preserveAspectRatio="none" version="1.1" viewBox="0 0 1000 1000" xmlns="http://www.w3.org/2000/svg">
	<g transform="matrix(1 0 0 .99996198 2.3722649e-5 -52.360008)" stroke-width="1.000019">
		<g transform="translate(0,-4e-6)" fill="#16151a">
			<path d="m1.25 53.612v997.5h997.5v-997.5zm499.09 38.93c52.779 0.3216 104.03 27.452 132.99 75.818 52.32 0.75447 102.97 27.819 131.69 75.789 53.036 0.76413 104.37 28.548 132.87 77.752 28.498 49.202 27.061 107.56 1.3364 153.94 27.317 48.778 25.588 106.18 0.21047 151.94 41.544 74.182 15.911 168.33-57.906 211.08-23.864 13.822-49.883 20.594-75.644 20.979-13.152 22.155-31.972 41.354-55.837 55.176-23.864 13.822-49.883 20.593-75.644 20.977-13.152 22.155-31.97 41.354-55.835 55.176-73.817 42.755-168.24 18.14-211.91-54.81-52.32-0.76-102.97-27.82-131.69-75.79-53.03-0.76-104.36-28.56-132.86-77.76-28.501-49.2-27.063-107.56-1.34-153.94-27.316-48.78-25.586-106.18-0.21-151.94-41.543-74.18-15.912-168.33 57.91-211.09 23.275-13.481 48.6-20.266 73.737-20.949 0.63432-0.0172 1.2674-0.01 1.9015-0.0195 13.153-22.159 31.975-41.362 55.842-55.186 23.275-13.481 48.598-20.264 73.735-20.948 0.63564-0.0173 1.27-0.01 1.9054-0.0194 13.152-22.158 31.972-41.362 55.839-55.186 23.275-13.481 48.6-20.264 73.737-20.947 1.7282-0.04698 3.4547-0.06504 5.1804-0.05456zm-0.0138 7.943c-1.637-9e-3 -3.276 7e-3 -4.9154 0.0527-23.847 0.657-47.88 7.1075-69.989 19.913-21.237 12.3-38.264 29.063-50.596 48.408 49.285 2.1873 96.546 27.682 124.73 71.935 13.013-20.584 31.04-38.417 53.559-51.461 22.406-12.978 46.71-19.73 70.918-20.827-27.877-43.463-75.092-67.742-123.71-68.021zm128.39 75.824c-0.53903 9e-3 -1.0777 3e-3 -1.6169 0.0176-23.847 0.65701-47.88 7.1056-69.989 19.911-21.237 12.3-38.263 29.064-50.596 48.41 49.195 2.1833 96.372 27.591 124.57 71.695 21.983-42.675 22.73-95.15-2.371-140.03zm9.1412 0.12664c19.549 37.463 22.371 79.589 10.85 117.46 10.282-11.064 22.351-20.811 36.095-28.772 22.406-12.977 46.71-19.73 70.918-20.827-26.759-41.719-71.334-65.751-117.86-67.859zm-267.68 0.24c-23.331 42.11-25.52 94.587-1.9132 139.97 12.998-20.455 30.959-38.175 53.366-51.153 22.406-12.978 46.711-19.73 70.92-20.827-27.622-43.065-74.231-67.281-122.37-67.992zm-9.0885 0.14612c-22.911 1.0734-45.917 7.493-67.148 19.79-21.237 12.3-38.263 29.063-50.596 48.408 40.121 1.7806 78.893 19.014 107.13 49.232-12.16-39.53-7.805-81.743 10.61-117.43zm399.32 75.284c-0.53915 9e-3 -1.0778 2e-3 -1.6171 0.0176-23.847 0.657-47.88 7.1075-69.989 19.913-21.237 12.3-38.263 29.063-50.596 48.408 49.195 2.1833 96.372 27.59 124.57 71.693 21.982-42.675 22.729-95.149-2.3709-140.03zm9.1391 0.12664c24.263 46.497 22.768 100.18 0.0549 143.98 49.302 2.0948 96.61 27.521 124.87 71.713 22.308-43.305 22.761-96.704-3.4854-142.02-26.243-45.309-72.779-71.473-121.44-73.677zm-263.17 0.36431c19.55 37.463 22.374 79.589 10.854 117.46 10.281-11.064 22.349-20.811 36.093-28.772 22.405-12.977 46.71-19.729 70.918-20.827-26.759-41.72-71.336-65.752-117.86-67.859zm-13.595 0.0137c-22.912 1.0731-45.918 7.4927-67.15 19.79-21.237 12.3-38.263 29.063-50.596 48.408 40.121 1.7805 78.895 19.012 107.14 49.23-12.159-39.53-7.8047-81.742 10.61-117.43zm-254.08 0.2182c-23.332 42.11-25.521 94.589-1.9132 139.97 12.998-20.455 30.958-38.176 53.366-51.155 22.406-12.978 46.71-19.73 70.918-20.827-27.62-43.06-74.23-67.28-122.37-67.99zm-9.0886 0.14613c-22.912 1.0731-45.918 7.4926-67.15 19.79-68.767 39.83-93.457 126.4-57.156 196.19 12.998-20.455 30.958-38.176 53.366-51.155 22.518-13.043 46.955-19.797 71.284-20.842-24.361-46.462-22.966-100.14-0.34481-143.98zm269.95 3.8049c-21.102 41.247-22.413 91.579 0.22991 135.35 21.102-41.248 22.413-91.579-0.22991-135.35zm138.5 71.606c19.55 37.463 22.372 79.588 10.852 117.46 10.281-11.063 22.349-20.809 36.093-28.77 22.406-12.978 46.711-19.73 70.92-20.827-26.759-41.719-71.336-65.751-117.86-67.859zm-13.936 0.0291c-22.799 1.1208-45.682 7.5381-66.809 19.775-21.128 12.237-38.092 28.89-50.409 48.11 22.801-1.12 45.686-7.5487 66.815-19.786 21.124-12.235 38.087-28.883 50.403-48.098zm-262.83 0.34874c-22.911 1.0734-45.917 7.493-67.148 19.79-21.237 12.3-38.263 29.063-50.596 48.408 40.121 1.7806 78.893 19.013 107.13 49.23-12.159-39.53-7.8047-81.742 10.61-117.43zm14.002 0.01c26.7 41.408 70.998 65.305 117.26 67.532-26.68-41.41-70.97-65.31-117.24-67.54zm255.95 3.7991c-21.1 41.246-22.413 91.575 0.22793 135.35 21.1-41.246 22.413-91.575-0.22793-135.35zm-263.17 0.36432c-21.101 41.247-22.415 91.576 0.22795 135.35 21.101-41.246 22.414-91.577-0.22795-135.35zm245.74 21.711c-10.282 11.064-22.351 20.811-36.095 28.772-13.75 7.9637-28.215 13.584-42.933 16.996 29.776 6.8274 57.494 22.33 79.067 45.415-9.2897-30.198-8.9304-61.959-0.0387-91.184zm-228.1 0.43056c9.274 30.183 8.9104 61.925 0.0233 91.133 10.282-11.064 22.35-20.813 36.095-28.774 13.751-7.9649 28.22-13.574 42.941-16.987-29.766-6.8228-57.488-22.304-79.06-45.373zm384.04 49.096c24.215 46.403 22.779 99.965 0.19676 143.72 22.913-1.0724 45.921-7.5017 67.154-19.8 22.604-13.092 40.436-31.24 52.916-52.178-26.438-44.106-72.315-69.567-120.27-71.74zm-13.938 0.0272c-22.799 1.1208-45.683 7.54-66.809 19.777-21.128 12.237-38.092 28.89-50.409 48.11 22.801-1.12 45.686-7.5486 66.815-19.786 21.125-12.235 38.086-28.884 50.403-48.1zm-248.81 0.35c26.7 41.409 70.999 65.306 117.26 67.532-26.703-41.41-70.996-65.309-117.26-67.532zm-14.339 4e-3c-22.8 1.1205-45.684 7.5396-66.811 19.777-21.128 12.238-38.092 28.892-50.409 48.112 22.801-1.1198 45.686-7.5487 66.815-19.786 21.126-12.236 38.088-28.885 50.405-48.102zm-262.83 0.35068c-22.912 1.0731-45.918 7.4926-67.15 19.79-22.608 13.095-40.444 31.247-52.924 52.19 26.44 44.108 72.328 69.572 120.28 71.742-24.219-46.402-22.787-99.966-0.20845-143.72zm14 7e-3c26.7 41.409 70.997 65.309 117.26 67.536-26.703-41.411-70.994-65.312-117.26-67.536zm518.96 3.1308c-12.998 20.455-30.958 38.174-53.366 51.153-13.749 7.9637-28.215 13.584-42.933 16.996 38.592 8.8488 73.735 32.265 96.506 67.879 21.332-41.411 22.668-92.052-0.20662-136.03zm-263.01 0.67019c-21.101 41.246-22.414 91.575 0.22794 135.35 21.1-41.246 22.413-91.575-0.22794-135.35zm-262.99 6e-3c-21.326 41.409-22.662 92.041 0.21041 136.01 12.998-20.455 30.959-38.175 53.366-51.153 13.752-7.9653 28.222-13.573 42.943-16.985-38.594-8.8454-73.746-32.262-96.52-67.875zm245.55 22.072c-10.281 11.064-22.349 20.809-36.093 28.77-13.751 7.9644-28.217 13.584-42.937 16.996 29.778 6.8266 57.497 22.33 79.071 45.415-9.2896-30.197-8.9316-61.958-0.0409-91.182zm35.074 0.0643c9.2736 30.183 8.9104 61.925 0.0233 91.133 10.282-11.064 22.35-20.813 36.095-28.774 13.752-7.965 28.22-13.574 42.941-16.987-29.766-6.8227-57.488-22.304-79.06-45.373zm121.27 49.483c26.7 41.408 70.998 65.307 117.26 67.534-26.703-41.411-70.994-65.31-117.26-67.534zm-14.341 4e-3c-22.799 1.1208-45.682 7.54-66.809 19.777-21.129 12.238-38.094 28.891-50.411 48.112 22.801-1.1198 45.686-7.5486 66.815-19.786 21.126-12.236 38.088-28.885 50.405-48.102zm-248.83 0.36268c26.701 41.407 70.998 65.307 117.26 67.534-26.703-41.412-70.993-65.311-117.26-67.534zm-14.341 2e-3c-22.799 1.1206-45.682 7.54-66.809 19.777-21.128 12.238-38.092 28.892-50.409 48.112 22.8-1.1201 45.685-7.549 66.813-19.786 21.126-12.236 38.088-28.885 50.405-48.102zm533.31 3.125c-12.998 20.456-30.96 38.174-53.368 51.153-13.751 7.9644-28.218 13.584-42.937 16.996 38.594 8.8473 73.738 32.264 96.51 67.879 21.332-41.411 22.67-92.052-0.20462-136.03zm-263.01 0.6702c-21.1 41.247-22.413 91.576 0.22992 135.35 21.101-41.246 22.412-91.576-0.22992-135.35zm-263.17 0.3643c-21.1 41.246-22.412 91.575 0.22992 135.35 21.099-41.246 22.411-91.575-0.22992-135.35zm-262.99 4e-3c-21.327 41.409-22.664 92.042 0.20846 136.01 12.998-20.455 30.959-38.175 53.366-51.153 13.752-7.9651 28.222-13.573 42.943-16.985-38.594-8.8457-73.745-32.264-96.518-67.877zm508.72 21.709c-10.281 11.064-22.349 20.809-36.093 28.77-13.749 7.9634-28.214 13.584-42.931 16.996 29.775 6.8271 57.492 22.328 79.065 45.412-9.2884-30.196-8.9312-61.955-0.0411-91.178zm35.076 0.0642c9.274 30.183 8.9103 61.925 0.0237 91.133 10.282-11.064 22.35-20.812 36.095-28.774 13.752-7.9651 28.222-13.573 42.943-16.985-29.766-6.8224-57.49-22.305-79.062-45.375zm-298.24 0.33c-10.282 11.064-22.351 20.809-36.095 28.77-13.751 7.9644-28.217 13.584-42.937 16.996 29.777 6.826 57.497 22.327 79.071 45.412-9.2886-30.196-8.9297-61.955-0.039-91.178zm35.074 0.0682c9.2728 30.182 8.9085 61.922 0.0214 91.129 10.282-11.065 22.352-20.812 36.097-28.774 13.751-7.9647 28.219-13.574 42.939-16.987-29.764-6.8224-57.487-22.302-79.058-45.369zm384.03 49.092c24.215 46.403 22.779 99.965 0.19676 143.72 22.914-1.0722 45.922-7.5013 67.156-19.8 22.605-13.093 40.438-31.24 52.918-52.178-26.439-44.108-72.318-69.568-120.27-71.74zm-13.934 0.0271c-22.799 1.1208-45.682 7.54-66.809 19.777-21.128 12.238-38.092 28.892-50.409 48.112 22.8-1.1201 45.685-7.549 66.813-19.786 21.126-12.236 38.088-28.885 50.405-48.102zm-248.83 0.36044c26.7 41.409 70.999 65.307 117.26 67.534-26.703-41.411-70.995-65.311-117.26-67.534zm-14.339 4e-3c-22.799 1.1208-45.684 7.54-66.811 19.777-21.128 12.238-38.092 28.892-50.409 48.112 22.801-1.1198 45.686-7.5486 66.815-19.786 21.126-12.236 38.088-28.885 50.405-48.102zm-262.83 0.35103c-22.912 1.073-45.918 7.4926-67.15 19.79-22.608 13.095-40.444 31.247-52.924 52.189 26.44 44.107 72.327 69.572 120.28 71.742-24.22-46.403-22.786-99.966-0.20651-143.72zm14.002 0.01c26.7 41.408 70.996 65.307 117.26 67.534-26.702-41.41-70.992-65.31-117.26-67.534zm518.96 3.1289c-12.998 20.455-30.96 38.174-53.368 51.153-13.751 7.9644-28.217 13.584-42.937 16.996 38.594 8.847 73.738 32.263 96.51 67.877 21.331-41.411 22.67-92.051-0.20449-136.03zm-263.01 0.66825c-21.102 41.247-22.413 91.578 0.2299 135.35 21.101-41.247 22.413-91.578-0.2299-135.35zm-262.99 4e-3c-21.327 41.409-22.663 92.044 0.2104 136.02 12.998-20.455 30.958-38.174 53.366-51.153 13.752-7.9653 28.222-13.573 42.943-16.985-38.595-8.8463-73.747-32.265-96.52-67.879zm245.56 22.072c-10.282 11.065-22.35 20.812-36.095 28.774-13.751 7.9644-28.217 13.584-42.937 16.996 29.778 6.8266 57.497 22.33 79.071 45.415-9.29-30.199-8.9311-61.961-0.039-91.186zm35.072 0.0682c9.2737 30.182 8.9095 61.923 0.0233 91.131 10.282-11.064 22.351-20.811 36.095-28.772 13.752-7.965 28.222-13.573 42.943-16.985-29.766-6.8222-57.49-22.305-79.062-45.374zm121.27 49.485c26.7 41.407 70.997 65.305 117.26 67.532-26.702-41.41-70.992-65.308-117.26-67.532zm-14.341 3e-3c-22.8 1.1203-45.684 7.5397-66.811 19.777-21.128 12.237-38.092 28.891-50.409 48.112 22.801-1.1198 45.686-7.5486 66.815-19.786 21.126-12.236 38.088-28.885 50.405-48.102zm-248.83 0.36043c26.7 41.408 70.998 65.307 117.26 67.534-26.703-41.411-70.994-65.31-117.26-67.534zm-14.341 6e-3c-22.799 1.1208-45.682 7.5381-66.809 19.775-21.129 12.238-38.094 28.891-50.411 48.112 22.801-1.1198 45.686-7.5487 66.815-19.786 21.125-12.236 38.088-28.884 50.405-48.1zm533.31 3.123c-12.998 20.456-30.96 38.174-53.368 51.153-22.517 13.042-46.953 19.806-71.28 20.852 24.36 46.464 22.962 100.15 0.33704 143.98 22.913-1.0724 45.921-7.5016 67.154-19.8 68.767-39.83 93.458-126.4 57.158-196.19zm-263.01 0.6702c-21.101 41.247-22.415 91.576 0.22793 135.35 21.101-41.246 22.414-91.577-0.22793-135.35zm-263.17 0.36432c-21.1 41.246-22.413 91.575 0.22796 135.35 21.1-41.246 22.413-91.575-0.22796-135.35zm-262.99 4e-3c-22.302 43.303-22.755 96.697 3.4893 142.01 26.245 45.312 72.784 71.489 121.44 73.69-24.27-46.499-22.779-100.19-0.0643-143.99-49.299-2.095-96.612-27.515-124.87-71.703zm508.73 21.709c-10.282 11.064-22.351 20.809-36.095 28.77-13.751 7.9644-28.217 13.584-42.937 16.996 29.778 6.8266 57.497 22.33 79.071 45.415-9.2896-30.197-8.93-61.958-0.0387-91.182zm35.072 0.0682c12.141 39.518 7.7814 81.713-10.63 117.39 22.912-1.0727 45.919-7.502 67.152-19.8s38.258-29.057 50.59-48.398c-40.104-1.7814-78.876-18.993-107.11-49.187zm-298.24 0.2942c-10.282 11.064-22.35 20.811-36.095 28.772-22.408 12.979-46.716 19.742-70.926 20.838 26.761 41.72 71.348 65.757 117.88 67.863-19.556-37.467-22.381-79.6-10.858-117.47zm35.074 0.07c9.2724 30.181 8.9095 61.921 0.0233 91.127 10.281-11.064 22.349-20.811 36.093-28.772 13.752-7.9651 28.222-13.573 42.943-16.985-29.765-6.8222-57.488-22.303-79.06-45.371zm121.27 49.48c26.701 41.407 70.998 65.307 117.26 67.534-26.702-41.411-70.994-65.31-117.26-67.534zm-14.343 6e-3c-22.799 1.1208-45.682 7.5381-66.809 19.775-21.128 12.237-38.092 28.89-50.409 48.11 22.801-1.1198 45.686-7.5486 66.815-19.786 21.124-12.235 38.086-28.883 50.403-48.098zm270.14 3.4854c-12.998 20.456-30.96 38.174-53.368 51.153s-46.716 19.742-70.926 20.838c27.622 43.063 74.237 67.277 122.38 67.99 23.335-42.111 25.526-94.594 1.9171-139.98zm-263.01 0.67019c-21.101 41.247-22.415 91.578 0.22794 135.35 21.101-41.246 22.414-91.578-0.22794-135.35zm-262.99 6e-3c-21.978 42.675-22.722 95.147 2.3808 140.03 24.374-0.40535 48.993-6.8443 71.6-19.938 21.233-12.298 38.256-29.056 50.588-48.396-49.19-2.1866-96.369-27.596-124.57-71.694zm245.55 22.072c-10.281 11.064-22.349 20.811-36.093 28.772-22.408 12.979-46.715 19.74-70.926 20.836 26.761 41.72 71.348 65.757 117.88 67.863-19.556-37.466-22.382-79.599-10.859-117.47zm35.074 0.0643c12.143 39.519 7.7804 81.715-10.632 117.39 22.914-1.0722 45.922-7.5013 67.156-19.8 21.233-12.298 38.258-29.057 50.59-48.398-40.105-1.7809-78.877-18.994-107.11-49.191zm113.89 53.34c-12.998 20.456-30.96 38.174-53.368 51.153s-46.717 19.742-70.928 20.838c27.621 43.063 74.236 67.279 122.38 67.992 23.336-42.112 25.528-94.596 1.9191-139.98zm-262.83 0.30976c-21.979 42.675-22.724 95.148 2.3788 140.03 24.375-0.40477 48.994-6.8439 71.602-19.938 21.233-12.298 38.258-29.057 50.59-48.398-49.191-2.185-96.371-27.594-124.57-71.693zm280.63 22.138c12.142 39.519 7.7812 81.715-10.63 117.39 22.913-1.0729 45.921-7.5019 67.154-19.8s38.258-29.057 50.59-48.398c-40.105-1.7809-78.877-18.994-107.11-49.191zm-298.24 0.30003c-10.282 11.064-22.35 20.811-36.095 28.772-22.407 12.978-46.714 19.742-70.924 20.838 26.76 41.719 71.345 65.755 117.87 67.861-19.555-37.466-22.378-79.599-10.856-117.47zm149.15 53.105c-13.013 20.582-31.038 38.411-53.555 51.453-22.408 12.979-46.716 19.742-70.926 20.838 42.471 66.21404 129.85 87.87804 198.62 48.048 21.233-12.298 38.258-29.057 50.59-48.398-49.283-2.189-96.545-27.69-124.73-71.941z" stroke="#16151a" stroke-linecap="round" stroke-linejoin="round" stroke-width="2.5000474" />
			<rect y="52.362" width="1e3" height="20" stroke-width="1.000019" />
			<rect y="1032.4" width="1e3" height="20" stroke-width="1.000019" />
			<rect y="52.362" width="20" height="1e3" stroke-width="1.000019" />
			<rect x="980" y="52.362" width="20" height="1e3" stroke-width="1.000019" />
		</g>
	</g>
</svg>